<svg width="375" height="141" viewBox="0 0 375 141" fill="none" xmlns="http://www.w3.org/2000/svg">
<g opacity="0.77">
<g opacity="0.77">
<path opacity="0.77" d="M141.14 0.769989L1.64014 140.27" stroke="#1A1A1A" stroke-width="2" stroke-miterlimit="10"/>
<path opacity="0.77" d="M149.16 0.769989L9.66016 140.27" stroke="#1A1A1A" stroke-width="2" stroke-miterlimit="10"/>
<path opacity="0.77" d="M157.17 0.769989L17.6702 140.27" stroke="#1A1A1A" stroke-width="2" stroke-miterlimit="10"/>
<path opacity="0.77" d="M165.19 0.769989L25.6902 140.27" stroke="#1A1A1A" stroke-width="2" stroke-miterlimit="10"/>
<path opacity="0.77" d="M173.21 0.769989L33.7102 140.27" stroke="#1A1A1A" stroke-width="2" stroke-miterlimit="10"/>
<path opacity="0.77" d="M181.23 0.769989L41.7302 140.27" stroke="#1A1A1A" stroke-width="2" stroke-miterlimit="10"/>
<path opacity="0.77" d="M189.24 0.769989L49.7402 140.27" stroke="#1A1A1A" stroke-width="2" stroke-miterlimit="10"/>
<path opacity="0.77" d="M197.26 0.769989L57.7603 140.27" stroke="#1A1A1A" stroke-width="2" stroke-miterlimit="10"/>
<path opacity="0.77" d="M205.28 0.769989L65.78 140.27" stroke="#1A1A1A" stroke-width="2" stroke-miterlimit="10"/>
<path opacity="0.77" d="M213.3 0.769989L73.8 140.27" stroke="#1A1A1A" stroke-width="2" stroke-miterlimit="10"/>
<path opacity="0.77" d="M221.31 0.769989L81.8101 140.27" stroke="#1A1A1A" stroke-width="2" stroke-miterlimit="10"/>
<path opacity="0.77" d="M229.33 0.769989L89.8301 140.27" stroke="#1A1A1A" stroke-width="2" stroke-miterlimit="10"/>
<path opacity="0.77" d="M237.35 0.769989L97.8501 140.27" stroke="#1A1A1A" stroke-width="2" stroke-miterlimit="10"/>
<path opacity="0.77" d="M245.36 0.769989L105.86 140.27" stroke="#1A1A1A" stroke-width="2" stroke-miterlimit="10"/>
<path opacity="0.77" d="M253.38 0.769989L113.88 140.27" stroke="#1A1A1A" stroke-width="2" stroke-miterlimit="10"/>
<path opacity="0.77" d="M261.4 0.769989L121.9 140.27" stroke="#1A1A1A" stroke-width="2" stroke-miterlimit="10"/>
<path opacity="0.77" d="M269.42 0.769989L129.92 140.27" stroke="#1A1A1A" stroke-width="2" stroke-miterlimit="10"/>
<path opacity="0.77" d="M277.43 0.769989L137.93 140.27" stroke="#1A1A1A" stroke-width="2" stroke-miterlimit="10"/>
<path opacity="0.77" d="M285.45 0.769989L145.95 140.27" stroke="#1A1A1A" stroke-width="2" stroke-miterlimit="10"/>
<path opacity="0.77" d="M293.47 0.769989L153.97 140.27" stroke="#1A1A1A" stroke-width="2" stroke-miterlimit="10"/>
<path opacity="0.77" d="M301.48 0.769989L161.98 140.27" stroke="#1A1A1A" stroke-width="2" stroke-miterlimit="10"/>
<path opacity="0.77" d="M309.5 0.769989L170 140.27" stroke="#1A1A1A" stroke-width="2" stroke-miterlimit="10"/>
<path opacity="0.77" d="M317.52 0.769989L178.02 140.27" stroke="#1A1A1A" stroke-width="2" stroke-miterlimit="10"/>
<path opacity="0.77" d="M325.54 0.769989L186.04 140.27" stroke="#1A1A1A" stroke-width="2" stroke-miterlimit="10"/>
<path opacity="0.77" d="M333.55 0.769989L194.05 140.27" stroke="#1A1A1A" stroke-width="2" stroke-miterlimit="10"/>
<path opacity="0.77" d="M341.57 0.769989L202.07 140.27" stroke="#1A1A1A" stroke-width="2" stroke-miterlimit="10"/>
<path opacity="0.77" d="M349.59 0.769989L210.09 140.27" stroke="#1A1A1A" stroke-width="2" stroke-miterlimit="10"/>
<path opacity="0.77" d="M357.61 0.769989L218.11 140.27" stroke="#1A1A1A" stroke-width="2" stroke-miterlimit="10"/>
<path opacity="0.77" d="M365.62 0.769989L226.12 140.27" stroke="#1A1A1A" stroke-width="2" stroke-miterlimit="10"/>
<path opacity="0.77" d="M373.64 0.769989L234.14 140.27" stroke="#1A1A1A" stroke-width="2" stroke-miterlimit="10"/>
</g>
</g>
</svg>
